<svg xmlns="http://www.w3.org/2000/svg" width="1280" height="720" viewBox="0 0 1280 720" role="img" aria-label="Geometric ROI, Waypoint ROI, Semantic ROI ?깅뒫 鍮꾧탳 李⑦듃">
  <rect width="1280" height="720" fill="#ffffff"/>
  <text x="640" y="55" text-anchor="middle" font-family="Arial, sans-serif" font-size="34" font-weight="800" fill="#0f172a">ROI Method Comparison</text>
  <text x="640" y="88" text-anchor="middle" font-family="Arial, sans-serif" font-size="18" fill="#475569">Lower point count is better, higher OPR/OPPR is better, lower processing time is better.</text>
  <g font-family="Arial, sans-serif">
    <text x="110" y="145" font-size="22" font-weight="700" fill="#0f172a">Mean LiDAR Points</text>
    <text x="410" y="145" font-size="22" font-weight="700" fill="#0f172a">Avg. OPR</text>
    <text x="690" y="145" font-size="22" font-weight="700" fill="#0f172a">Avg. OPPR</text>
    <text x="970" y="145" font-size="22" font-weight="700" fill="#0f172a">Processing Time</text>
  </g>
  <g font-family="Arial, sans-serif" font-size="16" fill="#475569">
    <text x="120" y="630">Geometric</text>
    <text x="215" y="630">Waypoint</text>
    <text x="310" y="630">Semantic</text>
    <text x="400" y="630">Geometric</text>
    <text x="495" y="630">Waypoint</text>
    <text x="590" y="630">Semantic</text>
    <text x="680" y="630">Geometric</text>
    <text x="775" y="630">Waypoint</text>
    <text x="870" y="630">Semantic</text>
    <text x="960" y="630">Geometric</text>
    <text x="1055" y="630">Waypoint</text>
    <text x="1150" y="630">Semantic</text>
  </g>
  <g stroke="#e2e8f0" stroke-width="1">
    <line x1="90" y1="580" x2="360" y2="580"/><line x1="90" y1="490" x2="360" y2="490"/><line x1="90" y1="400" x2="360" y2="400"/><line x1="90" y1="310" x2="360" y2="310"/>
    <line x1="380" y1="580" x2="650" y2="580"/><line x1="380" y1="490" x2="650" y2="490"/><line x1="380" y1="400" x2="650" y2="400"/><line x1="380" y1="310" x2="650" y2="310"/>
    <line x1="660" y1="580" x2="930" y2="580"/><line x1="660" y1="490" x2="930" y2="490"/><line x1="660" y1="400" x2="930" y2="400"/><line x1="660" y1="310" x2="930" y2="310"/>
    <line x1="950" y1="580" x2="1220" y2="580"/><line x1="950" y1="490" x2="1220" y2="490"/><line x1="950" y1="400" x2="1220" y2="400"/><line x1="950" y1="310" x2="1220" y2="310"/>
  </g>
  <g>
    <rect x="120" y="226" width="48" height="354" fill="#f97316"/><rect x="215" y="349" width="48" height="231" fill="#22c55e"/><rect x="310" y="351" width="48" height="229" fill="#0ea5e9"/>
    <rect x="410" y="386" width="48" height="194" fill="#f97316"/><rect x="505" y="499" width="48" height="81" fill="#22c55e"/><rect x="600" y="181" width="48" height="399" fill="#0ea5e9"/>
    <rect x="690" y="180" width="48" height="400" fill="#f97316"/><rect x="785" y="487" width="48" height="93" fill="#22c55e"/><rect x="880" y="251" width="48" height="329" fill="#0ea5e9"/>
    <rect x="970" y="361" width="48" height="219" fill="#f97316"/><rect x="1065" y="179" width="48" height="401" fill="#22c55e"/><rect x="1160" y="192" width="48" height="388" fill="#0ea5e9"/>
  </g>
  <g font-family="Arial, sans-serif" font-size="15" font-weight="700" fill="#0f172a" text-anchor="middle">
    <text x="144" y="214">11785</text><text x="239" y="337">7691</text><text x="334" y="339">7611</text>
    <text x="434" y="374">0.0486</text><text x="529" y="487">0.0202</text><text x="624" y="169">0.0997</text>
    <text x="714" y="168">1.0000</text><text x="809" y="475">0.2328</text><text x="904" y="239">0.8235</text>
    <text x="994" y="349">43.73ms</text><text x="1089" y="167">80.26ms</text><text x="1184" y="180">77.55ms</text>
  </g>
  <g font-family="Arial, sans-serif" font-size="17">
    <rect x="455" y="665" width="18" height="18" fill="#f97316"/><text x="482" y="680" fill="#475569">Geometric ROI</text>
    <rect x="620" y="665" width="18" height="18" fill="#22c55e"/><text x="647" y="680" fill="#475569">Waypoint ROI</text>
    <rect x="775" y="665" width="18" height="18" fill="#0ea5e9"/><text x="802" y="680" fill="#475569">Semantic ROI</text>
  </g>
</svg>
