<svg xmlns="http://www.w3.org/2000/svg" width="1280" height="720" viewBox="0 0 1280 720" role="img" aria-label="Camera? LiDAR ?쇱꽌 ?⑥쟾?쇰줈 ?꾨줈 ROI point瑜??좏깮?섎뒗 湲곗닠 ?쇰윭?ㅽ듃">
  <rect width="1280" height="720" fill="#f7fafc"/>
  <rect x="0" y="470" width="1280" height="250" fill="#dfe7ef"/>
  <path d="M410 720 L610 370 L760 370 L970 720 Z" fill="#2f855a" opacity="0.18"/>
  <path d="M505 720 L645 370 L720 370 L865 720 Z" fill="#ffffff"/>
  <path d="M635 720 L680 390" stroke="#94a3b8" stroke-width="8" stroke-dasharray="28 26"/>
  <g transform="translate(500 455)">
    <rect x="0" y="85" width="280" height="72" rx="20" fill="#1f2937"/>
    <rect x="38" y="35" width="205" height="80" rx="28" fill="#334155"/>
    <circle cx="62" cy="166" r="30" fill="#111827"/>
    <circle cx="218" cy="166" r="30" fill="#111827"/>
    <rect x="110" y="0" width="70" height="38" rx="8" fill="#0ea5e9"/>
    <circle cx="145" cy="19" r="10" fill="#e0f2fe"/>
  </g>
  <g fill="#0ea5e9" opacity="0.9">
    <circle cx="490" cy="450" r="6"/>
    <circle cx="525" cy="420" r="6"/>
    <circle cx="560" cy="388" r="6"/>
    <circle cx="738" cy="390" r="6"/>
    <circle cx="780" cy="430" r="6"/>
    <circle cx="820" cy="472" r="6"/>
    <circle cx="620" cy="345" r="6"/>
    <circle cx="710" cy="342" r="6"/>
  </g>
  <g transform="translate(145 110)">
    <rect x="0" y="0" width="270" height="140" rx="18" fill="#ffffff" stroke="#cbd5e1" stroke-width="3"/>
    <text x="30" y="48" font-family="Arial, sans-serif" font-size="26" font-weight="700" fill="#0f172a">Camera</text>
    <text x="30" y="88" font-family="Arial, sans-serif" font-size="20" fill="#475569">road + object mask</text>
    <rect x="185" y="35" width="52" height="36" rx="8" fill="#22c55e"/>
    <circle cx="215" cy="91" r="18" fill="#f97316"/>
  </g>
  <g transform="translate(865 110)">
    <rect x="0" y="0" width="270" height="140" rx="18" fill="#ffffff" stroke="#cbd5e1" stroke-width="3"/>
    <text x="30" y="48" font-family="Arial, sans-serif" font-size="26" font-weight="700" fill="#0f172a">LiDAR</text>
    <text x="30" y="88" font-family="Arial, sans-serif" font-size="20" fill="#475569">3D point cloud</text>
    <g fill="#0ea5e9">
      <circle cx="192" cy="45" r="5"/><circle cx="225" cy="63" r="5"/><circle cx="205" cy="92" r="5"/><circle cx="238" cy="104" r="5"/>
    </g>
  </g>
  <path d="M420 180 C520 230 605 245 640 318" fill="none" stroke="#64748b" stroke-width="4" marker-end="url(#arrow)"/>
  <path d="M860 180 C755 230 700 250 665 318" fill="none" stroke="#64748b" stroke-width="4" marker-end="url(#arrow)"/>
  <defs>
    <marker id="arrow" markerWidth="10" markerHeight="10" refX="7" refY="3" orient="auto">
      <path d="M0,0 L0,6 L8,3 z" fill="#64748b"/>
    </marker>
  </defs>
  <text x="640" y="82" text-anchor="middle" font-family="Arial, sans-serif" font-size="42" font-weight="800" fill="#0f172a">Semantic Dynamic ROI</text>
  <text x="640" y="128" text-anchor="middle" font-family="Arial, sans-serif" font-size="24" fill="#475569">Camera-LiDAR sensor fusion for efficient autonomous driving perception</text>
</svg>
